Coordinates
version=1
nRows=6
nColumns=38
inDegrees=yes

Units are S.I. units (second, meters, Newtons, ...)
Angles are in degrees.

endheader
time	pelvis_tilt	pelvis_list	pelvis_rotation	pelvis_tx	pelvis_ty	pelvis_tz	hip_flexion_r	hip_adduction_r	hip_rotation_r	knee_angle_r	ankle_angle_r	subtalar_angle_r	mtp_angle_r	hip_flexion_l	hip_adduction_l	hip_rotation_l	knee_angle_l	ankle_angle_l	subtalar_angle_l	mtp_angle_l	lumbar_extension	lumbar_bending	lumbar_rotation	arm_flex_r	arm_add_r	arm_rot_r	elbow_flex_r	pro_sup_r	wrist_flex_r	wrist_dev_r	arm_flex_l	arm_add_l	arm_rot_l	elbow_flex_l	pro_sup_l	wrist_flex_l	wrist_dev_l
      1.67000000	     -2.86315256	      1.02329560	      3.62886669	      0.50504705	      0.90164047	     -0.18715460	      7.40461066	      5.93469763	      6.55208862	    -16.99011237	     11.19748845	     -8.40972218	      0.00000000	     26.67666947	      1.57920609	     -2.58273352	    -46.18635674	      4.35135238	     -1.22905826	      0.00000000	     -7.63772796	     -0.63015432	      4.52335030	      5.58455527	     -5.64913845	     39.56115057	     30.40438233	     44.33638201	      0.00000000	      0.00000000	      0.12464862	     -7.30271331	     21.44263976	     47.57404987	     44.33638201	      0.00000000	      0.00000000
      1.68000000	     -2.77980275	      1.28208334	      3.11100144	      0.51614869	      0.90105893	     -0.18626482	      6.46005514	      5.79618312	      7.07466366	    -16.89455365	     11.92205459	     -8.38799546	      0.00000000	     26.85016232	      1.86131494	     -3.00468061	    -42.82685529	      4.37374338	     -1.27472433	      0.00000000	     -7.87246046	     -0.92241583	      4.81349679	      6.34703578	     -5.76714748	     39.64779385	     30.84392854	     44.34084253	      0.00000000	      0.00000000	     -0.65723645	     -7.32829176	     21.46639500	     47.23574902	     44.34084253	      0.00000000	      0.00000000
      1.69000000	     -2.71012128	      1.27675730	      2.72612764	      0.52722317	      0.90005430	     -0.18546915	      5.65224819	      5.94910999	      7.53016446	    -17.01682432	     12.52082044	     -8.54150563	      0.00000000	     27.10912859	      1.93544097	     -3.13603548	    -39.48412143	      4.16131063	     -1.30327529	      0.00000000	     -8.07191995	     -0.91370199	      5.12092443	      6.62919315	     -6.41091299	     40.60700645	     32.81232239	     44.37998885	      0.00000000	      0.00000000	     -0.94870869	     -7.22694142	     21.27584526	     46.42698567	     44.37998885	      0.00000000	      0.00000000
      1.70000000	     -2.77977635	      1.16921446	      2.34072163	      0.53825314	      0.89855731	     -0.18463628	      4.83097234	      6.20476998	      8.17089289	    -16.89241369	     12.83198649	     -8.48720548	      0.00000000	     27.52827646	      1.90720017	     -3.06861743	    -36.16087687	      3.88592738	     -0.81963038	      0.00000000	     -8.10875034	     -0.79481147	      5.47850614	      7.18440534	     -6.48013146	     40.56658795	     32.99804595	     44.38291241	      0.00000000	      0.00000000	     -1.49610246	     -7.22219096	     21.32158407	     46.24262731	     44.38291241	      0.00000000	      0.00000000
      1.71000000	     -2.59206220	      1.11053712	      1.93675907	      0.54956100	      0.89718331	     -0.18376909	      3.78676163	      6.46124081	      9.02192138	    -16.85899493	     13.49567376	     -9.06005027	      0.00000000	     27.57735548	      1.88921172	     -3.38090635	    -32.69057989	      3.50918269	     -0.62755539	      0.00000000	     -8.43332722	     -0.73904370	      5.76114613	      7.78327585	     -6.53119582	     40.61003744	     33.45828696	     44.39016826	      0.00000000	      0.00000000	     -2.03125668	     -7.26735201	     21.32204261	     45.91406356	     44.39016826	      0.00000000	      0.00000000
      1.72000000	     -2.57323393	      0.91606575	      1.51806310	      0.56086254	      0.89538722	     -0.18291134	      3.03559001	      6.80616830	      9.47549139	    -17.00596453	     14.05439798	     -9.34349496	      0.00000000	     27.76985136	      1.80099321	     -3.18286413	    -29.34457872	      3.17801268	     -0.07667879	      0.00000000	     -8.55045129	     -0.53432352	      6.12953931	      8.30825112	     -6.65604714	     40.61677397	     33.79312947	     44.39426655	      0.00000000	      0.00000000	     -2.58925739	     -7.21548898	     21.34672800	     45.63634851	     44.39426655	      0.00000000	      0.00000000
